HIERARCHY
ROOT hip
{
  OFFSET 0 0 0
  CHANNELS 6 Xposition Yposition Zposition Zrotation Yrotation Xrotation
  JOINT abdomen
  {
    OFFSET 0 20.6881 -0.73152
    CHANNELS 3 Zrotation Xrotation Yrotation
    JOINT chest
    {
      OFFSET 0 11.7043 -0.48768
      CHANNELS 3 Zrotation Xrotation Yrotation
      JOINT neck
      {
        OFFSET 0 22.1894 -2.19456
        CHANNELS 3 Zrotation Xrotation Yrotation
        JOINT head
        {
          OFFSET -0.24384 7.07133 1.2192
          CHANNELS 3 Zrotation Xrotation Yrotation
          JOINT leftEye
          {
            OFFSET 4.14528 8.04674 8.04672
            CHANNELS 3 Zrotation Xrotation Yrotation
            End Site
            {
              OFFSET 1 0 0
            }
          }
          JOINT rightEye
          {
            OFFSET -3.6576 8.04674 8.04672
            CHANNELS 3 Zrotation Xrotation Yrotation
            End Site
            {
              OFFSET 1 0 0
            }
          }
        }
      }
      JOINT rCollar
      {
        OFFSET -2.68224 19.2634 -4.8768
        CHANNELS 3 Zrotation Xrotation Yrotation
        JOINT rShldr
        {
          OFFSET -8.77824 -1.95073 1.46304
          CHANNELS 3 Zrotation Xrotation Yrotation
          JOINT rForeArm
          {
            OFFSET -28.1742 -1.7115 0.48768
            CHANNELS 3 Zrotation Xrotation Yrotation
            JOINT rHand
            {
              OFFSET -22.5879 0.773209 7.07136
              CHANNELS 3 Zrotation Xrotation Yrotation
              JOINT rThumb1
              {
                OFFSET -1.2192 -0.487915 3.41376
                CHANNELS 3 Zrotation Xrotation Yrotation
                JOINT rThumb2
                {
                  OFFSET -3.37035 -0.52449 3.41376
                  CHANNELS 3 Zrotation Xrotation Yrotation
                  End Site
                  {
                    OFFSET -1.78271 -1.18214 1.43049
                  }
                }
              }
              JOINT rIndex1
              {
                OFFSET -7.75947 0.938293 5.60832
                CHANNELS 3 Zrotation Xrotation Yrotation
                JOINT rIndex2
                {
                  OFFSET -2.54057 -0.884171 1.56538
                  CHANNELS 3 Zrotation Xrotation Yrotation
                  End Site
                  {
                    OFFSET -1.62519 -0.234802 1.16502
                  }
                }
              }
              JOINT rMid1
              {
                OFFSET -8.24714 1.18213 3.41376
                CHANNELS 3 Zrotation Xrotation Yrotation
                JOINT rMid2
                {
                  OFFSET -3.10165 -0.590103 1.0647
                  CHANNELS 3 Zrotation Xrotation Yrotation
                  End Site
                  {
                    OFFSET -2.48547 -0.328903 0.83742
                  }
                }
              }
              JOINT rRing1
              {
                OFFSET -8.82822 0.546677 1.51678
                CHANNELS 3 Zrotation Xrotation Yrotation
                JOINT rRing2
                {
                  OFFSET -2.60934 -0.819778 -0.0198488
                  CHANNELS 3 Zrotation Xrotation Yrotation
                  End Site
                  {
                    OFFSET -2.33842 -0.294052 0.168128
                  }
                }
              }
              JOINT rPinky1
              {
                OFFSET -8.27202 -0.0477905 -0.4584
                CHANNELS 3 Zrotation Xrotation Yrotation
                JOINT rPinky2
                {
                  OFFSET -1.82734 -0.647385 -0.700984
                  CHANNELS 3 Zrotation Xrotation Yrotation
                  End Site
                  {
                    OFFSET -1.69225 -0.51767 -0.607171
                  }
                }
              }
            }
          }
        }
      }
      JOINT lCollar
      {
        OFFSET 2.68224 19.2634 -4.8768
        CHANNELS 3 Zrotation Xrotation Yrotation
        JOINT lShldr
        {
          OFFSET 8.77824 -1.95073 1.46304
          CHANNELS 3 Zrotation Xrotation Yrotation
          JOINT lForeArm
          {
            OFFSET 28.1742 -1.7115 0.48768
            CHANNELS 3 Zrotation Xrotation Yrotation
            JOINT lHand
            {
              OFFSET 22.5879 0.773209 7.07136
              CHANNELS 3 Zrotation Xrotation Yrotation
              JOINT lThumb1
              {
                OFFSET 1.2192 -0.487915 3.41376
                CHANNELS 3 Zrotation Xrotation Yrotation
                JOINT lThumb2
                {
                  OFFSET 3.37035 -0.52449 3.41376
                  CHANNELS 3 Zrotation Xrotation Yrotation
                  End Site
                  {
                    OFFSET 1.78271 -1.18214 1.43049
                  }
                }
              }
              JOINT lIndex1
              {
                OFFSET 7.75947 0.938293 5.60832
                CHANNELS 3 Zrotation Xrotation Yrotation
                JOINT lIndex2
                {
                  OFFSET 2.54057 -0.884171 1.56538
                  CHANNELS 3 Zrotation Xrotation Yrotation
                  End Site
                  {
                    OFFSET 1.62519 -0.234802 1.16502
                  }
                }
              }
              JOINT lMid1
              {
                OFFSET 8.24714 1.18213 3.41376
                CHANNELS 3 Zrotation Xrotation Yrotation
                JOINT lMid2
                {
                  OFFSET 3.10165 -0.590103 1.0647
                  CHANNELS 3 Zrotation Xrotation Yrotation
                  End Site
                  {
                    OFFSET 2.48547 -0.328903 0.83742
                  }
                }
              }
              JOINT lRing1
              {
                OFFSET 8.82822 0.546677 1.51678
                CHANNELS 3 Zrotation Xrotation Yrotation
                JOINT lRing2
                {
                  OFFSET 2.60934 -0.819778 -0.0198488
                  CHANNELS 3 Zrotation Xrotation Yrotation
                  End Site
                  {
                    OFFSET 2.33842 -0.294052 0.168128
                  }
                }
              }
              JOINT lPinky1
              {
                OFFSET 8.27202 -0.0477905 -0.4584
                CHANNELS 3 Zrotation Xrotation Yrotation
                JOINT lPinky2
                {
                  OFFSET 1.82734 -0.647385 -0.700984
                  CHANNELS 3 Zrotation Xrotation Yrotation
                  End Site
                  {
                    OFFSET 1.69225 -0.51767 -0.607171
                  }
                }
              }
            }
          }
        }
      }
    }
  }
  JOINT rButtock
  {
    OFFSET -8.77824 4.35084 1.2192
    CHANNELS 3 Zrotation Xrotation Yrotation
    JOINT rThigh
    {
      OFFSET 0 -1.70687 -2.19456
      CHANNELS 3 Zrotation Xrotation Yrotation
      JOINT rShin
      {
        OFFSET 0 -36.8199 0.73152
        CHANNELS 3 Zrotation Xrotation Yrotation
        JOINT rFoot
        {
          OFFSET 0.73152 -45.1104 -5.12064
          CHANNELS 3 Zrotation Xrotation Yrotation
          End Site
          {
            OFFSET -1.1221 -3.69964 12.103
          }
        }
      }
    }
  }
  JOINT lButtock
  {
    OFFSET 8.77824 4.35084 1.2192
    CHANNELS 3 Zrotation Xrotation Yrotation
    JOINT lThigh
    {
      OFFSET 0 -1.70687 -2.19456
      CHANNELS 3 Zrotation Xrotation Yrotation
      JOINT lShin
      {
        OFFSET 0 -36.8199 0.73152
        CHANNELS 3 Zrotation Xrotation Yrotation
        JOINT lFoot
        {
          OFFSET -0.73152 -45.1104 -5.12064
          CHANNELS 3 Zrotation Xrotation Yrotation
          End Site
          {
            OFFSET 1.1221 -3.69964 12.103
          }
        }
      }
    }
  }
}
MOTION
Frames:	4
Frame Time:	0.03333
47.8165 69.9083 -37.8678 -171.043251 42.74763 -167.770625 6.393579 12.084524 -1.08235 3.175754 -11.9293 6.484588 4.556304 15.202016 64.867996 -29.852557 -7.771288 -76.788469 0.000495 0.0 0.001098 0.000495 0.0 0.001098 -159.220863 -48.028473 170.415184 120.293193 42.477885 -105.776902 -13.485537 18.321399 131.563582 -3.772016 -39.59612 -7.335142 177.526588 -19.767029 88.835628 -156.583714 4.731825 86.375681 -145.48764 -6.527417 118.752496 85.14638 -69.54092 34.126864 -0.969353 2.779489 0.55434 -4.706942 20.802674 4.253352 -0.00199 -0.018354 -0.006651 -52.792223 -86.670269 -74.296753 -135.070989 -13.383928 -132.468886 1.944634 -2.152572 -2.540832 -1.697938 -70.103197 16.504323 -97.982625 23.089124 8.206587 -170.407816 -12.66462 -52.442979 147.563974 31.608559 -127.713773 12.925917 12.051901 -3.30941 139.530532 -42.97882 -111.534778 19.170795 24.114185 -13.381695 13.188451 26.553814 -8.305013 160.098598 -4.901097 -142.968866 1.393648 12.595176 -2.561036 63.181314 72.738326 -80.602711 -4.987579 -26.001559 7.780606 -26.963221 80.123209 -10.147917 -8.888438 22.926214 -4.577761 -179.982305 75.749873 -0.012107 -171.945283 45.275542 89.914864 65.453206 -13.663487 -104.052026 -137.929609 7.780199 12.687181 179.994657 75.748132 0.005513 -170.529523 5.429166 -133.391872 -98.816026 -38.782861 -177.909435 -155.015835 -28.804636 92.153276
49.7659 70.0476 -39.8383 -170.741807 44.02416 -166.887369 5.681695 11.79975 -0.933072 3.817167 -11.949892 8.655621 6.440078 21.592702 104.129511 -35.555604 16.740237 -108.847062 -0.002518 0.0 -0.000238 -0.002518 0.0 -0.000238 -40.038268 -86.056178 -61.569508 65.805082 27.439615 -45.981193 -13.306437 45.617816 127.683692 -6.430892 -28.38888 -6.441783 -168.112558 -5.788292 89.870898 -137.451995 8.313051 68.307228 -108.427723 34.160718 91.742674 12.030782 -10.220433 -7.432587 0.542472 -1.589704 -0.295117 1.847939 4.019864 0.553666 5.7e-05 -0.018521 -0.005758 -6.178754 62.269641 18.855897 -166.30065 78.43226 -149.222594 -129.143966 -28.427697 -125.893122 21.652762 52.079703 -23.826852 105.035816 7.731693 -50.706259 165.735745 8.997085 90.419736 9.140133 -37.421922 8.838745 4.166507 4.057374 -0.784238 5.397074 6.482213 -7.1102 0.328185 0.529502 -0.187658 -55.020649 -48.763235 -11.912341 0.0581 0.167762 -0.032504 -2.67392 1.651628 -0.198369 145.098519 -1.522473 178.650754 -12.196536 49.183139 3.251412 15.564597 -28.355944 14.851769 21.011859 -39.016275 22.406695 -179.998117 75.749475 -0.001288 -171.128642 47.354425 107.727305 62.931079 -37.923385 -24.111869 158.541205 69.752626 100.458845 -0.006036 -0.000726 -0.003018 25.615034 -68.666251 27.235421 -21.561016 80.042702 -13.806941 -9.945017 -19.797531 46.800076
51.8901 70.3311 -42.0084 -170.700767 45.387625 -166.305237 3.441723 6.600718 152.381389 -7.908666 4.234103 -144.111793 5.28396 15.877719 72.634904 -32.400954 -2.519202 -81.725514 0.005364 0.0 0.003797 0.004811 -0.0 -0.000371 -155.548013 -3.804207 161.90024 139.317303 -4.351756 -168.111565 178.66636 -0.126688 38.707337 -159.60746 19.610697 136.104485 -85.830086 38.631576 47.954884 -43.614572 -2.277613 42.97314 -150.885109 -16.291832 120.978078 -62.210912 57.347964 46.017526 -36.033555 51.724067 29.831238 -5.743412 23.288081 5.133549 -145.117445 0.226826 -179.199174 -73.703169 -78.004297 -95.20839 -6.199633 -13.938699 -5.82874 -85.005926 -53.882425 -84.802706 9.652113 34.836112 -11.1994 109.178064 0.879142 -61.307008 -82.450565 -26.076305 100.375308 75.947328 55.313897 -55.424498 178.927967 -16.453475 -89.422259 165.083432 -2.454689 -90.40654 150.885365 -16.291494 -120.978682 -14.836834 -7.729226 10.61079 -5.892977 -18.352031 2.543042 167.383809 -17.301395 -144.215763 145.065696 -3.22413 178.113428 -12.274986 51.112718 2.965259 12.373411 -24.158106 11.758418 -20.055774 58.296534 -9.400638 -0.0 -0.000397 -0.001537 8.866836 -23.699848 -68.508606 -57.500606 22.526602 86.418993 119.189522 -50.794643 39.737417 -179.983578 75.750038 -0.011236 -171.10179 3.19941 87.311618 85.544965 10.136257 112.898922 123.935316 12.079462 -179.222361
54.299200000000006 70.826 -44.2913 -170.996642 46.892284 -166.264248 3.090958 9.985561 -0.40952 4.018288 -11.688021 8.143326 -13.240801 16.295201 -55.400099 32.546165 -5.213243 51.391999 -0.003204 0.0 -0.001315 0.002883 0.0 0.002028 -40.040569 -86.055977 -61.571998 103.698778 37.80489 -75.462932 -19.640438 6.304305 100.561409 -9.07137 -58.491862 -14.084771 116.309204 -50.010184 56.954489 -12.741039 -73.146481 -36.100941 -108.428516 34.161743 91.743111 -159.891291 -2.952803 115.645322 -167.296445 -27.767433 145.262213 166.181546 -64.789983 131.605074 -145.119242 0.268067 -179.211867 12.006638 33.470547 -5.21008 -87.574833 -50.207505 -85.929902 -146.950622 13.279343 -143.004985 13.74322 42.431652 -15.568906 163.209719 35.280713 -76.901081 -11.083935 -74.460635 125.390836 153.321038 23.09357 -133.623526 -51.059949 -41.204019 -12.856331 68.492195 38.816556 -40.529931 0.32848 0.529623 -0.186387 171.807561 -27.394276 -108.457526 160.574716 -6.35896 -143.198725 88.645915 63.698732 -80.364094 -0.004195 0.917553 -0.289828 -7.764613 23.992468 -3.530486 124.85078 -29.037743 122.62069 -1.959738 -2.84932 2.552097 -179.986325 75.749075 -0.011251 -169.142787 53.898486 154.822573 6.168375 -67.182516 -50.929696 -85.581539 -9.898022 -144.756726 -179.992525 75.750837 -0.00615 -167.595988 3.505901 -106.846214 -68.938841 -28.218739 4.504026 165.436054 48.942693 -106.630029
